<svg width="16" height="16" viewBox="0 0 16 16" fill="none" xmlns="http://www.w3.org/2000/svg">
<path fill-rule="evenodd" clip-rule="evenodd" d="M9.85642 7.99935L15.0517 2.80403C15.5652 2.29149 15.5659 1.45975 15.0534 0.9463C14.5408 0.432848 13.7091 0.432113 13.1956 0.94466L8.00032 6.13997L2.80501 0.94466C2.29156 0.431207 1.45909 0.431207 0.945636 0.94466C0.432184 1.45811 0.432184 2.29058 0.945636 2.80403L6.14095 7.99935L0.945636 13.1947C0.432184 13.7081 0.432184 14.5406 0.945636 15.054C1.45909 15.5675 2.29156 15.5675 2.80501 15.054L8.00032 9.85872L13.1956 15.054C13.7091 15.5675 14.5416 15.5675 15.055 15.054C15.5685 14.5406 15.5685 13.7081 15.055 13.1947L9.85642 7.99935Z" fill="#222428"/>
</svg>
