<svg width="26" height="26" viewBox="0 0 26 26" fill="none" xmlns="http://www.w3.org/2000/svg">
<path fill-rule="evenodd" clip-rule="evenodd" d="M8.26059 1.625H17.7394C21.3891 1.625 24.375 4.61094 24.375 8.26059V17.7394C24.375 21.3891 21.3891 24.375 17.7394 24.375H8.26059C4.61094 24.375 1.625 21.3891 1.625 17.7394V8.26059C1.625 4.61094 4.61094 1.625 8.26059 1.625ZM22.4792 8.26049C22.4714 5.64594 20.3539 3.52837 17.7393 3.52056H8.26049C5.64594 3.52837 3.52837 5.64594 3.52056 8.26049V17.7393C3.52837 20.3539 5.64594 22.4714 8.26049 22.4792H17.7393C20.3539 22.4714 22.4714 20.3539 22.4792 17.7393V8.26049ZM19.1612 8.26068C18.3759 8.26068 17.7393 7.62409 17.7393 6.83881C17.7393 6.05353 18.3759 5.41694 19.1612 5.41694C19.9465 5.41694 20.583 6.05353 20.583 6.83881C20.5839 7.21616 20.4343 7.57829 20.1675 7.84512C19.9007 8.11195 19.5385 8.26149 19.1612 8.26068ZM13 7.3125C9.85888 7.3125 7.3125 9.85888 7.3125 13C7.3125 16.1411 9.85888 18.6875 13 18.6875C16.1411 18.6875 18.6875 16.1411 18.6875 13C18.6875 11.4916 18.0883 10.0449 17.0217 8.97833C15.9551 7.91172 14.5084 7.3125 13 7.3125ZM12.9999 9.20806C14.5336 9.20806 15.9162 10.1319 16.5031 11.5488C17.09 12.9657 16.7656 14.5967 15.6811 15.6811C14.5967 16.7656 12.9657 17.09 11.5488 16.5031C10.1319 15.9162 9.20806 14.5336 9.20806 12.9999C9.2103 10.9067 10.9067 9.2103 12.9999 9.20806Z" fill="#222428"/>
</svg>
