<svg width="26" height="26" viewBox="0 0 26 26" fill="none" xmlns="http://www.w3.org/2000/svg">
<path fill-rule="evenodd" clip-rule="evenodd" d="M21.0605 4.93091C18.9364 2.80582 16.0523 1.61591 13.0477 1.62505C6.80469 1.62505 1.7225 6.68185 1.71996 12.8985C1.7172 14.878 2.23899 16.8229 3.23223 18.5352L1.625 24.375L7.62988 22.8074C9.29206 23.7079 11.1527 24.1792 13.0432 24.1785H13.0477C19.2903 24.1785 24.372 19.1212 24.375 12.9051C24.3826 9.91042 23.1886 7.03784 21.0605 4.93091ZM13.0477 22.2757H13.0436C11.3584 22.2762 9.70379 21.8252 8.2519 20.9696L7.90811 20.7665L4.34479 21.6968L5.29592 18.2391L5.07198 17.8837C4.12967 16.3918 3.63042 14.663 3.63233 12.8985C3.63233 7.73249 7.85784 3.52933 13.0512 3.52933C18.2391 3.52006 22.4524 7.71771 22.4625 12.9056C22.4605 18.0721 18.237 22.2757 13.0477 22.2757ZM18.2117 15.2582C17.9288 15.1171 16.5359 14.4356 16.2779 14.3416C16.02 14.2477 15.8295 14.2005 15.6411 14.4828C15.4527 14.7652 14.9099 15.3969 14.7448 15.5873C14.5798 15.7777 14.4148 15.7986 14.1319 15.6574C13.8491 15.5162 12.9365 15.2191 11.8554 14.2594C11.0139 13.5124 10.4462 12.5902 10.2812 12.3084C10.1161 12.0265 10.2634 11.8737 10.4051 11.7335C10.5325 11.6071 10.6879 11.4045 10.8296 11.2399C10.9713 11.0754 11.0185 10.9576 11.1125 10.7697C11.2064 10.5818 11.1597 10.4173 11.0891 10.2766C11.0185 10.1359 10.4523 8.7491 10.2167 8.18492C9.98664 7.63547 9.75355 7.71012 9.57988 7.70148C9.41484 7.69336 9.22441 7.69133 9.03703 7.69133C8.74746 7.69886 8.47407 7.82654 8.28242 8.04375C8.02293 8.32609 7.29168 9.00859 7.29168 10.3939C7.29168 11.7792 8.3073 13.1198 8.44746 13.3077C8.58762 13.4956 10.4432 16.3409 13.2823 17.5612C13.8095 17.7869 14.3482 17.9849 14.8962 18.1543C15.5741 18.3686 16.1911 18.3386 16.6786 18.266C17.2225 18.1853 18.3544 17.5845 18.5895 16.9264C18.8246 16.2683 18.8251 15.7046 18.7545 15.5873C18.6839 15.47 18.495 15.3989 18.2117 15.2582Z" fill="#222428"/>
</svg>
