<svg width="211" height="94" viewBox="0 0 211 94" fill="none" xmlns="http://www.w3.org/2000/svg">
<g clip-path="url(#clip0)">
<path d="M15.9005 0H17.8028L33.4157 42.4454H31.4476L25.8434 27.2294H7.44488L1.84479 42.4454H0L15.9005 0ZM25.3052 25.6323L16.7921 2.18947H16.7346L7.97901 25.6323H25.3052Z" fill="#262424"/>
<path d="M40.8477 0.220703H54.246C62.4633 0.220703 67.7018 4.77937 67.7018 12.1239C67.7018 18.6923 63.7123 23.7248 55.4375 24.3171L69.4316 42.4333H67.1677L53.2928 24.3784H42.6924V42.4333H40.8477V0.220703ZM53.0545 22.7771C61.3334 22.7771 65.6804 19.5092 65.6804 12.1239C65.6804 5.49013 61.0335 1.82195 53.0545 1.82195H42.6924V22.7771H53.0545Z" fill="#262424"/>
<path d="M87.1162 1.8914H71.7539V0.220703H104.212V1.87914H88.9692V42.4333H87.1244L87.1162 1.8914Z" fill="#262424"/>
<path d="M139.041 80.3078V65.0347C139.041 55.9173 145.29 50.1128 154.403 50.1128C163.274 50.1128 169.708 54.9696 169.708 63.9685V79.0579C169.708 88.1752 163.512 93.9797 154.403 93.9797C145.829 93.9838 139.041 89.3639 139.041 80.3078ZM167.802 79.4173V64.0257C167.802 56.5096 162.621 51.8897 154.103 51.8897C146.005 51.8897 141.005 57.5145 141.005 65.3288V79.6542C141.005 87.4154 146.124 92.3172 154.403 92.3172C162.501 92.3254 167.802 87.1172 167.802 79.4173Z" fill="#262424"/>
<path d="M87.0918 51.0195H88.9366V91.5696H112.159V93.228H87.0959L87.0918 51.0195Z" fill="#262424"/>
<path d="M116.764 80.3198V65.0467C116.764 55.9294 123.017 50.1289 132.126 50.1289C141.001 50.1289 147.431 54.9858 147.431 63.9805V79.0944C147.431 88.2117 141.239 94.0122 132.126 94.0122C123.531 93.9958 116.764 89.38 116.764 80.3198ZM145.524 79.4334V64.0418C145.524 56.5217 140.343 51.9058 131.83 51.9058C123.732 51.9058 118.732 57.5306 118.732 65.3449V79.6704C118.732 87.4315 123.851 92.3333 132.126 92.3333C140.204 92.3415 145.524 87.1293 145.524 79.4334Z" fill="#262424"/>
<path d="M175.271 51.0195H177.655L193.185 76.5334H193.243L208.486 51.0195H210.988V93.228H209.143V54.0382H208.962L193.9 78.9557H192.363L177.297 54.0382H177.059V93.228H175.271V51.0195Z" fill="#262424"/>
<path d="M116.793 29.0716H103.398V27.7645H116.793V14.4438H118.231V27.7645H131.506V29.0716H118.231V42.4494H116.793V29.0716Z" fill="#262424"/>
</g>
<defs>
<clipPath id="clip0">
<rect width="211" height="94" fill="white"/>
</clipPath>
</defs>
</svg>
